<svg width="54" height="54" viewBox="0 0 54 54" fill="none"
  xmlns="http://www.w3.org/2000/svg">
  <path d="M11.11 30.5852L10.8818 17.5072L14.3212 17.4472C15.601 17.4248 16.7051 17.6456 17.6333 18.1095C18.5749 18.5731 19.294 19.2807 19.7907 20.2321C20.3007 21.1834 20.5683 22.3789 20.5934 23.8187C20.6188 25.2718 20.3934 26.4959 19.9174 27.491C19.4544 28.4726 18.774 29.2179 17.8761 29.727C16.9782 30.2361 15.9093 30.5014 14.6695 30.5231L11.11 30.5852ZM13.3969 28.665L14.3767 28.6479C15.2166 28.6332 15.9203 28.4543 16.4877 28.111C17.0682 27.7541 17.5057 27.2264 17.8003 26.5278C18.0948 25.8292 18.2326 24.94 18.2138 23.8602C18.1951 22.7937 18.0266 21.9232 17.7081 21.2486C17.3896 20.5741 16.9343 20.082 16.3421 19.7722C15.7633 19.4623 15.0539 19.3147 14.2141 19.3293L13.2342 19.3464L13.3969 28.665ZM26.4918 34.4373C25.9319 34.4471 25.4041 34.3897 24.9086 34.265C24.4265 34.1533 23.9773 34.0078 23.5607 33.8284L24.2317 32.1564C24.6213 32.323 24.9901 32.4433 25.3381 32.5172C25.6995 32.5909 26.0401 32.625 26.3601 32.6194C26.9333 32.6094 27.3716 32.5084 27.675 32.3164C27.9786 32.1377 28.1872 31.8674 28.3009 31.5053C28.4282 31.1564 28.4874 30.7286 28.4785 30.222L28.34 22.2832L24.0806 22.3576L24.0489 20.5379L30.6079 20.4234L30.7761 30.0619C30.7866 30.6618 30.723 31.223 30.5854 31.7455C30.4612 32.2677 30.2358 32.7251 29.9093 33.1175C29.5963 33.523 29.1617 33.8373 28.6055 34.0604C28.0496 34.2968 27.345 34.4225 26.4918 34.4373ZM29.2566 18.6467C28.79 18.6548 28.3943 18.5217 28.0695 18.2473C27.758 17.9727 27.5982 17.6021 27.59 17.1355C27.5819 16.6689 27.7287 16.293 28.0304 16.0077C28.3452 15.7088 28.7359 15.5553 29.2025 15.5472C29.6825 15.5388 30.0783 15.6786 30.39 15.9665C30.7015 16.2411 30.8614 16.6117 30.8695 17.0783C30.8777 17.5449 30.7309 17.9208 30.4291 18.2062C30.1274 18.4915 29.7366 18.6383 29.2566 18.6467ZM37.0905 30.1317L36.8622 17.0537L40.3017 16.9937C41.5815 16.9713 42.6855 17.1921 43.6137 17.656C44.5553 18.1196 45.2744 18.8272 45.7711 19.7786C46.2811 20.7299 46.5487 21.9254 46.5738 23.3652C46.5992 24.8183 46.3738 26.0424 45.8978 27.0375C45.4349 28.0191 44.7544 28.7644 43.8565 29.2735C42.9586 29.7826 41.8897 30.0479 40.6499 30.0696L37.0905 30.1317ZM39.3773 28.2115L40.3572 28.1944C41.197 28.1798 41.9007 28.0008 42.4681 27.6575C43.0486 27.3006 43.4862 26.7729 43.7807 26.0743C44.0752 25.3758 44.213 24.4866 44.1942 23.4067C44.1756 22.3402 44.007 21.4697 43.6885 20.7951C43.37 20.1206 42.9147 19.6285 42.3225 19.3188C41.7437 19.0088 41.0344 18.8612 40.1945 18.8758L39.2146 18.8929L39.3773 28.2115Z" fill="black"/>
  <path d="M17.5154 37.8763L18.5754 36.5963C19.722 37.863 20.942 38.7897 22.2354 39.3763C23.5287 39.963 24.9887 40.2563 26.6154 40.2563C28.242 40.2563 29.702 39.963 30.9954 39.3763C32.2887 38.7897 33.5087 37.863 34.6554 36.5963L35.7154 37.8763C34.6087 39.223 33.2887 40.283 31.7554 41.0563C30.2354 41.843 28.522 42.2363 26.6154 42.2363C24.7087 42.2363 22.9954 41.843 21.4754 41.0563C19.9554 40.283 18.6354 39.223 17.5154 37.8763Z" fill="black"/>
  <circle cx="27" cy="27" r="26" stroke="black" stroke-width="2"/>
</svg>
